<mxfile host="app.diagrams.net" agent="Mozilla/5.0 (Windows NT 10.0; Win64; x64) AppleWebKit/537.36 (KHTML, like Gecko) Chrome/131.0.0.0 Safari/537.36" version="24.9.0">
  <diagram name="Page-1" id="TbQEECOXGb5liN-s7vVo">
    <mxGraphModel dx="521" dy="557" grid="1" gridSize="10" guides="1" tooltips="1" connect="1" arrows="1" fold="1" page="1" pageScale="1" pageWidth="850" pageHeight="1100" math="0" shadow="0">
      <root>
        <mxCell id="0" />
        <mxCell id="1" parent="0" />
        <mxCell id="m-9XYyMyMiZHmff8bBBt-1" value="AWS Account" style="points=[[0,0],[0.25,0],[0.5,0],[0.75,0],[1,0],[1,0.25],[1,0.5],[1,0.75],[1,1],[0.75,1],[0.5,1],[0.25,1],[0,1],[0,0.75],[0,0.5],[0,0.25]];outlineConnect=0;gradientColor=none;html=1;whiteSpace=wrap;fontSize=12;fontStyle=0;container=1;pointerEvents=0;collapsible=0;recursiveResize=0;shape=mxgraph.aws4.group;grIcon=mxgraph.aws4.group_account;strokeColor=#CD2264;fillColor=none;verticalAlign=top;align=left;spacingLeft=30;fontColor=#CD2264;dashed=0;" vertex="1" parent="1">
          <mxGeometry x="100" y="100" width="710" height="380" as="geometry" />
        </mxCell>
        <mxCell id="m-9XYyMyMiZHmff8bBBt-2" value="" style="rounded=0;whiteSpace=wrap;html=1;" vertex="1" parent="m-9XYyMyMiZHmff8bBBt-1">
          <mxGeometry x="390" y="60" width="280" height="260" as="geometry" />
        </mxCell>
        <mxCell id="m-9XYyMyMiZHmff8bBBt-27" style="edgeStyle=orthogonalEdgeStyle;rounded=0;orthogonalLoop=1;jettySize=auto;html=1;" edge="1" parent="m-9XYyMyMiZHmff8bBBt-1" source="m-9XYyMyMiZHmff8bBBt-3">
          <mxGeometry relative="1" as="geometry">
            <mxPoint x="530" y="170" as="targetPoint" />
          </mxGeometry>
        </mxCell>
        <mxCell id="m-9XYyMyMiZHmff8bBBt-3" value="Amazon EKS" style="sketch=0;outlineConnect=0;fontColor=#232F3E;gradientColor=none;strokeColor=#ffffff;fillColor=#232F3E;dashed=0;verticalLabelPosition=middle;verticalAlign=bottom;align=center;html=1;whiteSpace=wrap;fontSize=10;fontStyle=1;spacing=3;shape=mxgraph.aws4.productIcon;prIcon=mxgraph.aws4.eks;" vertex="1" parent="m-9XYyMyMiZHmff8bBBt-1">
          <mxGeometry x="430" y="130" width="50" height="80" as="geometry" />
        </mxCell>
        <mxCell id="m-9XYyMyMiZHmff8bBBt-15" style="edgeStyle=orthogonalEdgeStyle;rounded=0;orthogonalLoop=1;jettySize=auto;html=1;" edge="1" parent="m-9XYyMyMiZHmff8bBBt-1">
          <mxGeometry relative="1" as="geometry">
            <mxPoint x="530" y="160" as="targetPoint" />
            <mxPoint x="600" y="200" as="sourcePoint" />
          </mxGeometry>
        </mxCell>
        <mxCell id="m-9XYyMyMiZHmff8bBBt-16" style="edgeStyle=orthogonalEdgeStyle;rounded=0;orthogonalLoop=1;jettySize=auto;html=1;" edge="1" parent="m-9XYyMyMiZHmff8bBBt-1">
          <mxGeometry relative="1" as="geometry">
            <mxPoint x="530" y="180" as="targetPoint" />
            <mxPoint x="600" y="120" as="sourcePoint" />
          </mxGeometry>
        </mxCell>
        <mxCell id="m-9XYyMyMiZHmff8bBBt-24" style="edgeStyle=orthogonalEdgeStyle;rounded=0;orthogonalLoop=1;jettySize=auto;html=1;entryX=0;entryY=0.25;entryDx=0;entryDy=0;" edge="1" parent="m-9XYyMyMiZHmff8bBBt-1" source="m-9XYyMyMiZHmff8bBBt-21" target="m-9XYyMyMiZHmff8bBBt-25">
          <mxGeometry relative="1" as="geometry">
            <Array as="points">
              <mxPoint x="350" y="156" />
              <mxPoint x="350" y="278" />
            </Array>
          </mxGeometry>
        </mxCell>
        <mxCell id="m-9XYyMyMiZHmff8bBBt-21" value="" style="outlineConnect=0;dashed=0;verticalLabelPosition=bottom;verticalAlign=top;align=center;html=1;shape=mxgraph.aws3.application_load_balancer;fillColor=#F58536;gradientColor=none;" vertex="1" parent="m-9XYyMyMiZHmff8bBBt-1">
          <mxGeometry x="200" y="120" width="70" height="60" as="geometry" />
        </mxCell>
        <mxCell id="m-9XYyMyMiZHmff8bBBt-22" value="" style="sketch=0;points=[[0,0,0],[0.25,0,0],[0.5,0,0],[0.75,0,0],[1,0,0],[0,1,0],[0.25,1,0],[0.5,1,0],[0.75,1,0],[1,1,0],[0,0.25,0],[0,0.5,0],[0,0.75,0],[1,0.25,0],[1,0.5,0],[1,0.75,0]];outlineConnect=0;fontColor=#232F3E;fillColor=#8C4FFF;strokeColor=#ffffff;dashed=0;verticalLabelPosition=bottom;verticalAlign=top;align=center;html=1;fontSize=12;fontStyle=0;aspect=fixed;shape=mxgraph.aws4.resourceIcon;resIcon=mxgraph.aws4.route_53;" vertex="1" parent="m-9XYyMyMiZHmff8bBBt-1">
          <mxGeometry x="10" y="111" width="78" height="78" as="geometry" />
        </mxCell>
        <mxCell id="m-9XYyMyMiZHmff8bBBt-23" style="edgeStyle=orthogonalEdgeStyle;rounded=0;orthogonalLoop=1;jettySize=auto;html=1;entryX=-0.014;entryY=0.643;entryDx=0;entryDy=0;entryPerimeter=0;" edge="1" parent="m-9XYyMyMiZHmff8bBBt-1" source="m-9XYyMyMiZHmff8bBBt-22" target="m-9XYyMyMiZHmff8bBBt-21">
          <mxGeometry relative="1" as="geometry">
            <mxPoint x="190" y="153" as="targetPoint" />
            <Array as="points">
              <mxPoint x="199" y="154" />
            </Array>
          </mxGeometry>
        </mxCell>
        <mxCell id="m-9XYyMyMiZHmff8bBBt-29" value="" style="edgeStyle=orthogonalEdgeStyle;rounded=0;orthogonalLoop=1;jettySize=auto;html=1;" edge="1" parent="m-9XYyMyMiZHmff8bBBt-1" source="m-9XYyMyMiZHmff8bBBt-25" target="m-9XYyMyMiZHmff8bBBt-28">
          <mxGeometry relative="1" as="geometry" />
        </mxCell>
        <mxCell id="m-9XYyMyMiZHmff8bBBt-25" value="ingress" style="rounded=1;whiteSpace=wrap;html=1;" vertex="1" parent="m-9XYyMyMiZHmff8bBBt-1">
          <mxGeometry x="400" y="260" width="80" height="30" as="geometry" />
        </mxCell>
        <mxCell id="m-9XYyMyMiZHmff8bBBt-26" value="" style="aspect=fixed;sketch=0;html=1;dashed=0;whitespace=wrap;verticalLabelPosition=bottom;verticalAlign=top;fillColor=#2875E2;strokeColor=#ffffff;points=[[0.005,0.63,0],[0.1,0.2,0],[0.9,0.2,0],[0.5,0,0],[0.995,0.63,0],[0.72,0.99,0],[0.5,1,0],[0.28,0.99,0]];shape=mxgraph.kubernetes.icon2;kubernetesLabel=1;prIcon=pod" vertex="1" parent="m-9XYyMyMiZHmff8bBBt-1">
          <mxGeometry x="610" y="251" width="50" height="48" as="geometry" />
        </mxCell>
        <mxCell id="m-9XYyMyMiZHmff8bBBt-30" value="" style="edgeStyle=orthogonalEdgeStyle;rounded=0;orthogonalLoop=1;jettySize=auto;html=1;" edge="1" parent="m-9XYyMyMiZHmff8bBBt-1" source="m-9XYyMyMiZHmff8bBBt-28" target="m-9XYyMyMiZHmff8bBBt-26">
          <mxGeometry relative="1" as="geometry" />
        </mxCell>
        <mxCell id="m-9XYyMyMiZHmff8bBBt-28" value="" style="image;sketch=0;aspect=fixed;html=1;points=[];align=center;fontSize=12;image=img/lib/mscae/Kubernetes_Services.svg;" vertex="1" parent="m-9XYyMyMiZHmff8bBBt-1">
          <mxGeometry x="520" y="256.5" width="50" height="37" as="geometry" />
        </mxCell>
        <mxCell id="m-9XYyMyMiZHmff8bBBt-31" value="" style="outlineConnect=0;dashed=0;verticalLabelPosition=bottom;verticalAlign=top;align=center;html=1;shape=mxgraph.aws3.ec2;fillColor=#F58534;gradientColor=none;" vertex="1" parent="m-9XYyMyMiZHmff8bBBt-1">
          <mxGeometry x="600" y="80" width="46.5" height="70" as="geometry" />
        </mxCell>
        <mxCell id="m-9XYyMyMiZHmff8bBBt-34" value="" style="outlineConnect=0;dashed=0;verticalLabelPosition=bottom;verticalAlign=top;align=center;html=1;shape=mxgraph.aws3.ec2;fillColor=#F58534;gradientColor=none;" vertex="1" parent="m-9XYyMyMiZHmff8bBBt-1">
          <mxGeometry x="600" y="170" width="46.5" height="70" as="geometry" />
        </mxCell>
      </root>
    </mxGraphModel>
  </diagram>
</mxfile>
